<?xml version="1.0" standalone="no"?>
<!DOCTYPE svg PUBLIC "-//W3C//DTD SVG 20010904//EN"
 "http://www.w3.org/TR/2001/REC-SVG-20010904/DTD/svg10.dtd">
<svg version="1.0" xmlns="http://www.w3.org/2000/svg"
 width="366.000000pt" height="180.000000pt" viewBox="0 0 366.000000 180.000000"
 preserveAspectRatio="xMidYMid meet">
<metadata>
Created by potrace 1.15, written by Peter Selinger 2001-2017
</metadata>
<g transform="translate(0.000000,180.000000) scale(0.100000,-0.100000)"
fill="#000000" stroke="none">
<path d="M900 1405 c-68 -68 -101 -108 -95 -114 6 -6 35 -13 65 -16 46 -5 61
-2 92 17 63 39 238 161 235 164 -1 2 -20 -1 -40 -6 -48 -10 -92 2 -127 35
l-26 25 -104 -105z"/>
<path d="M182 1163 c-37 -194 -53 -317 -51 -388 1 -33 3 -40 6 -20 3 17 20 46
40 66 l35 37 2 236 c0 130 1 236 0 236 0 0 -14 -75 -32 -167z"/>
<path d="M2231 1062 c-52 -26 -76 -65 -76 -122 0 -57 27 -93 84 -111 53 -17
81 -37 81 -59 0 -10 -9 -21 -20 -25 -23 -7 -88 4 -96 16 -3 5 -11 9 -18 9 -16
0 -51 -74 -41 -89 12 -21 77 -41 132 -41 99 0 156 42 168 125 11 70 -31 128
-100 141 -39 7 -78 26 -82 40 -6 17 25 44 51 44 12 0 31 -7 42 -15 10 -8 22
-15 25 -15 8 0 52 81 47 85 -8 8 -115 35 -137 35 -14 0 -41 -8 -60 -18z"/>
<path d="M610 860 l0 -210 60 0 60 0 0 80 0 80 80 0 80 0 0 50 0 50 -80 0 -80
0 0 30 0 30 85 0 85 0 0 50 0 50 -145 0 -145 0 0 -210z"/>
<path d="M970 860 l0 -210 60 0 60 0 0 210 0 210 -60 0 -60 0 0 -210z"/>
<path d="M1180 860 l0 -210 60 0 59 0 3 115 3 115 89 -115 89 -115 59 0 58 0
0 210 0 210 -60 0 -59 0 -3 -115 -3 -115 -90 115 -89 115 -58 0 -58 0 0 -210z"/>
<path d="M1807 1063 c-10 -16 -157 -406 -155 -408 2 -1 29 0 61 3 54 4 59 7
72 38 l14 34 71 0 71 0 14 -34 c13 -30 19 -34 66 -39 29 -4 55 -5 57 -2 4 4
-137 386 -147 396 -10 10 -119 20 -124 12z"/>
<path d="M2480 1020 l0 -50 50 0 50 0 0 -160 0 -160 60 0 60 0 0 160 0 160 50
0 50 0 0 50 0 50 -160 0 -160 0 0 -50z"/>
<path d="M2860 860 l0 -210 61 0 61 0 -4 70 c-2 39 -2 70 -1 70 1 0 21 -31 45
-70 l43 -70 73 0 c39 0 72 2 72 5 0 3 -27 39 -60 81 l-61 76 37 32 c31 27 37
39 41 81 4 41 0 56 -19 85 -35 52 -59 60 -180 60 l-108 0 0 -210z"/>
<path d="M3307 868 c-43 -112 -77 -206 -77 -210 0 -5 27 -8 59 -8 59 0 60 0
72 35 l13 35 71 0 71 0 13 -35 c12 -35 13 -35 72 -35 40 0 59 4 59 13 0 6 -33
100 -74 207 l-74 195 -64 3 -64 3 -77 -203z"/>
<path d="M1305 403 c-69 -37 -204 -89 -291 -113 -64 -18 -81 -28 -119 -69 -33
-35 -63 -55 -106 -71 -33 -13 -58 -24 -56 -27 8 -7 153 49 277 109 117 55 350
184 350 194 0 6 0 6 -55 -23z"/>
</g>
</svg>
